<svg xmlns="http://www.w3.org/2000/svg" width="60" height="60" viewBox="0 0 60 60"><defs><style>.a,.c{fill:none;}.a{stroke-miterlimit:10;}.b,.e{fill:#e74c3c;}.d,.e{stroke:none;}</style></defs><g transform="translate(5 5)"><g class="a" transform="translate(-148 -147)"><path class="d" d="M195.5,152h-8.75a1.25,1.25,0,0,0-1.25,1.25h0a1.25,1.25,0,0,0,1.25,1.25h8.75v25h-45v-25h8.75a1.25,1.25,0,0,0,1.25-1.25h0a1.25,1.25,0,0,0-1.25-1.25H150.5a2.5,2.5,0,0,0-2.5,2.5V187a2.5,2.5,0,0,0,2.5,2.5H168v5h-3.75a1.25,1.25,0,0,0,0,2.5h17.5a1.25,1.25,0,0,0,0-2.5H178v-5h17.5A2.5,2.5,0,0,0,198,187V154.5A2.5,2.5,0,0,0,195.5,152Zm-20,42.5h-5v-5h5Zm20-7.5h-45v-5h45Z"/><path class="e" d="M 150.5 152 L 159.25 152 C 159.9400024414062 152 160.5 152.5599975585938 160.5 153.25 C 160.5 153.9412384033203 159.9400024414062 154.5 159.25 154.5 L 150.5 154.5 L 150.5 179.5 L 195.5 179.5 L 195.5 154.5 L 186.75 154.5 C 186.0599975585938 154.5 185.5 153.9412384033203 185.5 153.25 C 185.5 152.5599975585938 186.0599975585938 152 186.75 152 L 195.5 152 C 196.8812408447266 152 198 153.1199951171875 198 154.5 L 198 187 C 198 188.3812408447266 196.8812408447266 189.5 195.5 189.5 L 178 189.5 L 178 194.5 L 181.75 194.5 C 182.4400024414062 194.5 183 195.0599975585938 183 195.75 C 183 196.4412384033203 182.4400024414062 197 181.75 197 L 178 197 L 175.5 197 L 170.5 197 L 168 197 L 164.25 197 C 163.5599975585938 197 163 196.4412384033203 163 195.75 C 163 195.0599975585938 163.5599975585938 194.5 164.25 194.5 L 168 194.5 L 168 189.5 L 150.5 189.5 C 149.1199951171875 189.5 148 188.3812408447266 148 187 L 148 154.5 C 148 153.1199951171875 149.1199951171875 152 150.5 152 Z M 195.5 187 L 195.5 182 L 150.5 182 L 150.5 187 L 195.5 187 Z M 175.5 194.5 L 175.5 189.5 L 170.5 189.5 L 170.5 194.5 L 175.5 194.5 Z"/></g><path class="b" d="M178.75,148h-17.5a1.25,1.25,0,0,0-1.25,1.25v20a1.25,1.25,0,0,0,1.25,1.25h17.5a1.25,1.25,0,0,0,1.25-1.25v-20A1.25,1.25,0,0,0,178.75,148Zm-7.5,17.5H165a1.25,1.25,0,0,1,0-2.5h6.25a1.25,1.25,0,0,1,0,2.5Zm2.5-5H165a1.25,1.25,0,0,1,0-2.5h8.75a1.25,1.25,0,0,1,0,2.5Zm0-5H165a1.25,1.25,0,0,1,0-2.5h8.75a1.25,1.25,0,0,1,0,2.5Z" transform="translate(-145 -148)"/><g class="a" transform="translate(-145 -143)"><path class="d" d="M161.25,170.5h17.5a1.25,1.25,0,0,0,0-2.5h-17.5a1.25,1.25,0,0,0,0,2.5Z"/><path class="e" d="M 178.75 170.5 L 161.25 170.5 C 160.5599975585938 170.5 160 169.9412384033203 160 169.25 C 160 168.5599975585938 160.5599975585938 168 161.25 168 L 178.75 168 C 179.4400024414062 168 180 168.5599975585938 180 169.25 C 180 169.9412384033203 179.4400024414062 170.5 178.75 170.5 Z"/></g></g><rect class="c" width="60" height="60"/></svg>