<svg xmlns="http://www.w3.org/2000/svg" width="60" height="60" viewBox="0 0 60 60"><defs><style>.a{fill:#e74c3c;}.b{fill:none;}</style></defs><g transform="translate(5.025 5)"><path class="a" d="M249.076,168.75a8.75,8.75,0,1,0,8.75-8.75A8.75,8.75,0,0,0,249.076,168.75Zm15,0a6.25,6.25,0,1,1-6.25-6.25A6.256,6.256,0,0,1,264.076,168.75Z" transform="translate(-242.82 -145)"/><path class="a" d="M273.826,177.5a8.75,8.75,0,1,0-8.75-8.75A8.75,8.75,0,0,0,273.826,177.5Zm0-15a6.25,6.25,0,1,1-6.25,6.25A6.257,6.257,0,0,1,273.826,162.5Z" transform="translate(-238.82 -145)"/><path class="a" d="M259.014,176a15,15,0,0,0-14.937,13.622A1.261,1.261,0,0,0,245.327,191h12.4a1.25,1.25,0,0,0,0-2.5H246.765a12.5,12.5,0,0,1,24.7,1.4A1.229,1.229,0,0,0,272.7,191a1.26,1.26,0,0,0,1.25-1.375A15,15,0,0,0,259.014,176Z" transform="translate(-244.071 -141)"/><path class="a" d="M273.535,176a14.9,14.9,0,0,0-6.672,1.569,1.157,1.157,0,0,0-.259,1.874c.035.033.07.066.1.1a1.187,1.187,0,0,0,1.361.214A12.5,12.5,0,0,1,285.988,189.9a1.227,1.227,0,0,0,1.236,1.1,1.259,1.259,0,0,0,1.249-1.375A15,15,0,0,0,273.535,176Z" transform="translate(-238.529 -141)"/><path class="a" d="M267.5,148h-15a2.5,2.5,0,0,0-2.5,2.5V158a2.5,2.5,0,0,0,2.5,2.5H265l2.969,3.476A1.25,1.25,0,0,0,270,163V150.5A2.5,2.5,0,0,0,267.5,148Zm-11.25,6.25A1.25,1.25,0,1,1,255,153,1.25,1.25,0,0,1,256.25,154.25Zm5,0A1.25,1.25,0,1,1,260,153,1.25,1.25,0,0,1,261.25,154.25Zm5,0A1.25,1.25,0,1,1,265,153,1.25,1.25,0,0,1,266.25,154.25Z" transform="translate(-242.589 -148)"/><path class="a" d="M269.25,158a1.25,1.25,0,0,0,0,2.5H278a2.5,2.5,0,0,0,2.5-2.5v-7.5A2.5,2.5,0,0,0,278,148h-8.75a1.25,1.25,0,1,0,0,2.5H278V158Z" transform="translate(-238.089 -148)"/><rect class="a" width="3.75" height="2.5" rx="1" transform="translate(38.662 41.876)"/></g><rect class="b" width="60" height="60"/><rect class="a" width="2.5" height="10" rx="1" transform="translate(38.687 46.25)"/></svg>