<svg id="Home-Simple" xmlns="http://www.w3.org/2000/svg" width="100" height="100" viewBox="0 0 100 100">
  <rect id="Rectangle_88" data-name="Rectangle 88" width="100" height="100" fill="none"/>
  <g id="Group_271" data-name="Group 271" transform="translate(6.25 9.232)">
    <g id="Group_266" data-name="Group 266" transform="translate(6.494)">
      <path id="Path_155" data-name="Path 155" d="M922.7,620.305a2.083,2.083,0,0,1-2.083-2.083V607.761a23.177,23.177,0,0,0-26.079-22.992c-11.55,1.4-20.258,11.7-20.258,23.95v9.5a2.083,2.083,0,0,1-4.167,0v-9.5c0-14.356,10.283-26.431,23.923-28.09a27.346,27.346,0,0,1,30.748,27.131v10.461A2.081,2.081,0,0,1,922.7,620.305Z" transform="translate(-870.117 -580.432)" fill="#e74c3c"/>
    </g>
    <g id="Group_267" data-name="Group 267" transform="translate(0 47.613)">
      <path id="Path_156" data-name="Path 156" d="M888.925,635.23H869.083A2.083,2.083,0,0,1,867,633.146a29.9,29.9,0,0,1,29.86-29.86,2.083,2.083,0,0,1,0,4.167,25.73,25.73,0,0,0-25.61,23.61h17.675a2.083,2.083,0,0,1,0,4.167Z" transform="translate(-867 -603.286)" fill="#34495e"/>
    </g>
    <g id="Group_268" data-name="Group 268" transform="translate(15.873 9.913)">
      <path id="Path_157" data-name="Path 157" d="M892.575,621.1a17.957,17.957,0,1,1,17.956-17.956A17.977,17.977,0,0,1,892.575,621.1Zm0-31.748a13.791,13.791,0,1,0,13.79,13.792A13.806,13.806,0,0,0,892.575,589.357Z" transform="translate(-874.619 -585.19)" fill="#34495e"/>
    </g>
    <g id="Group_269" data-name="Group 269" transform="translate(24.802 25.788)">
      <path id="Path_158" data-name="Path 158" d="M887.932,603.92a9.038,9.038,0,0,1-9.027-9.027,2.083,2.083,0,0,1,2.083-2.083h13.887a2.081,2.081,0,0,1,2.083,2.083A9.038,9.038,0,0,1,887.932,603.92Zm-4.392-6.944a4.861,4.861,0,0,0,8.783,0Z" transform="translate(-878.905 -592.81)" fill="#34495e"/>
    </g>
    <g id="Group_270" data-name="Group 270" transform="translate(27.777 47.613)">
      <path id="Path_159" data-name="Path 159" d="M934.131,637.213H886.385a6.051,6.051,0,1,1,0-12.1h5.854v-15.9a5.932,5.932,0,0,1,5.925-5.925h35.967a5.932,5.932,0,0,1,5.925,5.925V631.29A5.93,5.93,0,0,1,934.131,637.213Zm-35.967-4.167h35.967a1.761,1.761,0,0,0,1.758-1.756V609.211a1.761,1.761,0,0,0-1.758-1.758H898.164a1.762,1.762,0,0,0-1.759,1.758v17.983a2.084,2.084,0,0,1-2.083,2.083h-7.937a1.884,1.884,0,1,0,0,3.769Z" transform="translate(-880.333 -603.286)" fill="#34495e"/>
    </g>
  </g>
</svg>