<svg xmlns="http://www.w3.org/2000/svg" width="60" height="60" viewBox="0 0 60 60"><defs><style>.a{fill:#e74c3c;}.b{fill:none;}</style></defs><g transform="translate(8.742 5)"><path class="a" d="M378.01,160.286a2.5,2.5,0,0,0-.732-1.768l-9.786-9.786a2.5,2.5,0,0,0-1.768-.732h-20.23a2.5,2.5,0,0,0-2.5,2.5V188a2.5,2.5,0,0,0,2.5,2.5H375.51a2.5,2.5,0,0,0,2.5-2.5ZM375.51,188H345.494V150.5H365.51v10a1.249,1.249,0,0,0,1.25,1.25h8.75Z" transform="translate(-342.994 -148)"/><path class="a" d="M354.7,162.678l-3.684,3.726-.884-.884a1.251,1.251,0,0,0-1.767,0h0a1.249,1.249,0,0,0,0,1.767l1.767,1.769a1.251,1.251,0,0,0,1.768,0l4.568-4.611a1.25,1.25,0,0,0-1.768-1.768Z" transform="translate(-341.744 -144.422)"/><path class="a" d="M354.7,155.678l-3.684,3.726-.884-.884a1.251,1.251,0,0,0-1.767,0h0a1.249,1.249,0,0,0,0,1.767l1.767,1.769a1.251,1.251,0,0,0,1.768,0l4.568-4.611a1.25,1.25,0,0,0-1.768-1.768Z" transform="translate(-341.744 -146.172)"/><path class="a" d="M357.007,163.25a1.249,1.249,0,0,0,1.25,1.25h10a1.25,1.25,0,0,0,0-2.5h-10A1.25,1.25,0,0,0,357.007,163.25Z" transform="translate(-339.491 -144.5)"/><path class="a" d="M358.257,168.5h3.75a1.25,1.25,0,0,0,0-2.5h-3.75a1.25,1.25,0,0,0,0,2.5Z" transform="translate(-339.491 -143.5)"/><path class="a" d="M368.257,171h-10a1.25,1.25,0,0,0,0,2.5h10a1.25,1.25,0,0,0,0-2.5Z" transform="translate(-339.491 -142.25)"/><path class="a" d="M362.007,175h-3.75a1.25,1.25,0,0,0,0,2.5h3.75a1.25,1.25,0,0,0,0-2.5Z" transform="translate(-339.491 -141.25)"/><path class="a" d="M355.309,171.366a1.251,1.251,0,0,0-1.768,0l-1.768,1.769-1.768-1.769a1.252,1.252,0,0,0-1.769,0h0a1.252,1.252,0,0,0,0,1.769l1.769,1.768-1.769,1.768a1.251,1.251,0,0,0,0,1.768h0a1.25,1.25,0,0,0,1.769,0l1.768-1.768,1.768,1.768a1.25,1.25,0,1,0,1.768-1.768l-1.768-1.768,1.768-1.768A1.25,1.25,0,0,0,355.309,171.366Z" transform="translate(-341.774 -142.25)"/><path class="a" d="M384.409,162.272a1.251,1.251,0,0,0-.269-.406l-2.5-2.5a1.251,1.251,0,0,0-1.769,1.769l2.135,2.134V192.75h-32.5V191.5a1.25,1.25,0,0,0-2.5,0V194a1.249,1.249,0,0,0,1.25,1.25h33.75a2.5,2.5,0,0,0,2.5-2.5v-30A1.244,1.244,0,0,0,384.409,162.272Z" transform="translate(-341.991 -145.25)"/></g><rect class="b" width="60" height="60"/></svg>