<svg xmlns="http://www.w3.org/2000/svg" width="38" height="38" viewBox="0 0 38 38"><defs><style>.a{fill:#c2c3c4;fill-rule:evenodd;}</style></defs><g transform="translate(0 0)"><path class="a" d="M2.784,37.617A3.166,3.166,0,0,0,5.95,40.784H37.617a3.166,3.166,0,0,0,3.167-3.167V5.951a3.166,3.166,0,0,0-3.167-3.167H5.951A3.166,3.166,0,0,0,2.784,5.951V37.617Zm19.792-1.584V23.367H19.409v-4.75h3.167c0-8.162.348-8.708,10.292-8.708v4.75c-5.241,0-4.75.293-4.75,3.958h4.75v4.75h-4.75V36.034H22.576Z" transform="translate(-2.784 -2.784)"/></g></svg>