<svg xmlns="http://www.w3.org/2000/svg" width="90.666" height="22" viewBox="0 0 90.666 22"><defs><style>.a{fill:#e84c3d;}</style></defs><g transform="translate(45.333 11)"><g transform="translate(-45.333 -11)"><g transform="translate(0 0.087)"><path class="a" d="M110.964,112.2V99.26H108.4V96.477h2.564V95.326c0-3.817,2.127-5.026,4.793-5.026h2.87v3.278h-2.185c-1.107,0-1.5.656-1.5,1.952v.947h3.118V99.26h-3.132V112.2h-3.963" transform="translate(-108.4 -90.285)"/><path class="a" d="M189.048,142.193c.2,2.724,1.763,3.191,3,3.191h4.589v3.293H192.05c-3.118,0-6.95-.976-6.95-7.838,0-6.192,3.351-7.838,6.381-7.838s6.061,1.326,6.061,7.838v1.355Zm2.433-6.513c-1.7,0-2.3.976-2.433,3.9H193.7c-.087-3.074-.772-3.9-2.215-3.9" transform="translate(-173.925 -126.764)"/><path class="a" d="M296.25,112.113h-7.882c-2.36,0-5.668-1.093-5.668-7.838s4.342-7.882,6.236-7.882h3.118V90.2h4.211v21.913Zm-4.211-12.544h-2.258c-1.675,0-3.118.408-3.118,4.706s1.253,4.764,2.841,4.764h2.55Z" transform="translate(-257.305 -90.2)"/><path class="a" d="M390.048,142.193c.2,2.724,1.763,3.191,3,3.191h4.589v3.293H393.05c-3.118,0-6.95-.976-6.95-7.838,0-6.192,3.351-7.838,6.381-7.838s6.061,1.326,6.061,7.838v1.355Zm2.433-6.513c-1.7,0-2.3.976-2.433,3.9H394.7c-.087-3.074-.772-3.9-2.215-3.9" transform="translate(-345.64 -126.764)"/><path class="a" d="M598.154,148.506c-1.85,0-4.254-.86-4.254-4.648,0-4.05,3.147-4.91,5.668-4.91h2.55v-1.02c0-1.544-.772-1.777-2.127-1.777h-4.735V132.8h5.42c2.943,0,5.42.83,5.42,5.158v10.534Zm3.963-7.227h-.991c-2.185,0-3.264.481-3.264,2.331a1.6,1.6,0,0,0,1.734,1.807h2.521Z" transform="translate(-523.165 -126.593)"/><path class="a" d="M493.909,148.291v-7.838c0-4.385-1.34-4.764-3.03-4.764h-2.725v12.6H483.9V132.6h8.188c2.521,0,6.061,1.093,6.061,7.853v7.838Z" transform="translate(-429.191 -126.423)"/></g><path class="a" d="M693.8,104h1.894a.973.973,0,0,1,1.034.976.794.794,0,0,1-.554.889h0c.379.1.5.466.51.83a1.633,1.633,0,0,0,.146.83h-.772a3.69,3.69,0,0,1-.117-.845.558.558,0,0,0-.583-.539h-.772v1.384h-.772Zm.772,1.588h.845c.35,0,.539-.146.539-.51s-.189-.5-.539-.5h-.845Z" transform="translate(-608.51 -101.902)"/><path class="a" d="M681.561,97.322a3.861,3.861,0,1,1,3.861-3.861A3.861,3.861,0,0,1,681.561,97.322Zm0-6.993a3.132,3.132,0,1,0,3.132,3.132A3.132,3.132,0,0,0,681.561,90.328Z" transform="translate(-594.756 -89.6)"/></g></g></svg>