<svg xmlns="http://www.w3.org/2000/svg" width="60" height="60" viewBox="0 0 60 60"><defs><style>.a{fill:none;}.b{fill:#e74c3c;}</style></defs><rect class="a" width="60" height="60"/><g transform="translate(8.75 5)"><path class="b" d="M91,152H72.25a1.25,1.25,0,0,0,0,2.5H91a1.25,1.25,0,0,0,0-2.5Z" transform="translate(-51 -147)"/><path class="b" d="M69.75,152A1.25,1.25,0,0,1,71,153.25v15a1.25,1.25,0,0,1-2.25.75L66,165.334,63.25,169a1.25,1.25,0,0,1-2.25-.75v-15A1.25,1.25,0,0,1,62.25,152Z" transform="translate(-53.5 -147)"/><path class="b" d="M95,158H76.25a1.25,1.25,0,0,0,0,2.5h17.5v33.75a1.25,1.25,0,0,1-1.25,1.25H58.75a1.25,1.25,0,0,1-1.25-1.25v-42.5a1.251,1.251,0,0,1,1.25-1.25H95a1.25,1.25,0,0,0,0-2.5H58.75A3.755,3.755,0,0,0,55,151.75v42.5A3.754,3.754,0,0,0,58.75,198H92.5a3.754,3.754,0,0,0,3.75-3.75v-35A1.25,1.25,0,0,0,95,158Z" transform="translate(-55 -148)"/><path class="b" d="M86,173H62.25A1.25,1.25,0,0,0,61,174.25V183a1.25,1.25,0,0,0,1.25,1.25H86A1.25,1.25,0,0,0,87.25,183v-8.75A1.25,1.25,0,0,0,86,173Zm-1.25,8.75H63.5V175.5H84.75Z" transform="translate(-53.5 -141.75)"/></g></svg>