<svg xmlns="http://www.w3.org/2000/svg" xmlns:xlink="http://www.w3.org/1999/xlink" width="38" height="38" viewBox="0 0 38 38"><defs><style>.a,.c{fill:#c2c3c4;}.a{stroke:#ccc;stroke-width:2px;}.b{clip-path:url(#a);}</style><clipPath id="a"><rect class="a" width="38" height="38" transform="translate(1 1)"/></clipPath></defs><g class="b" transform="translate(-1 -1)"><g transform="translate(-1.55 -2.566)"><path class="c" d="M22.974,20.705v-.059c-.012.02-.025.04-.038.059Z"/><path class="c" d="M37.639,3.566H5.459A2.757,2.757,0,0,0,2.669,6.288V38.844a2.757,2.757,0,0,0,2.789,2.721h32.18a2.758,2.758,0,0,0,2.792-2.721V6.288A2.757,2.757,0,0,0,37.639,3.566ZM14.115,35.376h-5.7V18.218h5.7Zm-2.851-19.5h-.038A2.972,2.972,0,1,1,11.3,9.945a2.974,2.974,0,1,1-.037,5.929Zm23.417,19.5h-5.7V26.195c0-2.306-.825-3.88-2.889-3.88A3.124,3.124,0,0,0,23.162,24.4a3.905,3.905,0,0,0-.187,1.391v9.583h-5.7s.075-15.551,0-17.159h5.7v2.429a5.663,5.663,0,0,1,5.141-2.834c3.752,0,6.566,2.453,6.566,7.724v9.84Z"/></g></g></svg>