<svg xmlns="http://www.w3.org/2000/svg" width="60" height="60" viewBox="0 0 60 60"><defs><style>.a{fill:#e74c3c;}.b{fill:none;}</style></defs><g transform="translate(6.875 8.75)"><path class="a" d="M551.846,159.741h17.5a1.25,1.25,0,0,0,0-2.5h-17.5a1.25,1.25,0,0,0,0,2.5Z" transform="translate(-529.346 -149.741)"/><path class="a" d="M551.846,163.741h17.5a1.25,1.25,0,0,0,0-2.5h-17.5a1.25,1.25,0,0,0,0,2.5Z" transform="translate(-529.346 -148.741)"/><rect class="a" width="5" height="5" rx="1" transform="translate(36.25 22.5)"/><path class="a" d="M561.1,169.241h-25a2.5,2.5,0,0,0-2.5,2.5v15a2.5,2.5,0,0,0,2.5,2.5h25a2.5,2.5,0,0,0,2.5-2.5v-15A2.5,2.5,0,0,0,561.1,169.241Zm0,17.5h-25v-3.75h25Zm0-8.75h-25v-6.25h25Z" transform="translate(-533.596 -146.741)"/><path class="a" d="M574.1,151.241h-25a2.5,2.5,0,0,0-2.5,2.5v16.25a1.25,1.25,0,1,0,2.5,0v-16.25h25v28.6l-1.383-.691-1.117-.559-1.119.559-3.881,1.941-1.941-.97a1.25,1.25,0,0,0-1.119,2.236l2.5,1.25a1.258,1.258,0,0,0,1.119,0l4.441-2.221,3.19,1.6a1.25,1.25,0,0,0,1.81-1.119V153.741A2.5,2.5,0,0,0,574.1,151.241Z" transform="translate(-530.346 -151.241)"/></g><rect class="b" width="60" height="60"/></svg>