<svg xmlns="http://www.w3.org/2000/svg" width="100" height="100" viewBox="0 0 100 100"><defs><style>.a{fill:none;}.b{fill:#34495e;}.c{fill:#e74c3c;}</style></defs><rect class="a" width="100" height="100"/><g transform="translate(4.167 15.625)"><g transform="translate(43.75 2.083)"><g transform="translate(0 43.923)"><path class="b" d="M985.083,619.993A2.081,2.081,0,0,1,983,617.91V607.666a2.083,2.083,0,1,1,4.167,0V617.91A2.082,2.082,0,0,1,985.083,619.993Z" transform="translate(-983 -605.583)"/></g><g transform="translate(18.1)"><path class="b" d="M1019.421,638.681a2.082,2.082,0,0,1-2.083-2.083V588.667h-12.865c-4.223,0-6.29.169-9.79,1.873a2.083,2.083,0,1,1-1.823-3.746c4.054-1.975,6.744-2.294,11.613-2.294h14.948a2.082,2.082,0,0,1,2.083,2.083V636.6A2.082,2.082,0,0,1,1019.421,638.681Z" transform="translate(-991.688 -584.5)"/></g></g><g transform="translate(0 2.083)"><path class="b" d="M964.083,638.681A2.081,2.081,0,0,1,962,636.6V586.583a2.081,2.081,0,0,1,2.083-2.083h14.948a30.719,30.719,0,0,1,11.533,2.225c.688.277,1.2.452,1.625.6a10.589,10.589,0,0,1,3.839,2.129,2.082,2.082,0,0,1-2.583,3.267,6.658,6.658,0,0,0-2.608-1.454c-.481-.162-1.054-.363-1.829-.673a26.58,26.58,0,0,0-9.977-1.925H966.167V636.6A2.081,2.081,0,0,1,964.083,638.681Z" transform="translate(-962 -584.5)"/></g><g transform="translate(0 50)"><path class="b" d="M1007.833,626.25H968.25c-3.446,0-6.25-3.115-6.25-6.944v-9.723a2.081,2.081,0,0,1,2.083-2.083h27.385c7.429,0,18.448,6.85,18.448,16.315v.352A2.082,2.082,0,0,1,1007.833,626.25Zm-41.667-14.583v7.64c0,1.506.954,2.777,2.083,2.777h37.308c-1.3-5.885-8.946-10.417-14.09-10.417Z" transform="translate(-962 -607.5)"/><g transform="translate(0 7.292)"><path class="b" d="M974.5,615.167H964.083a2.083,2.083,0,0,1,0-4.167H974.5a2.083,2.083,0,0,1,0,4.167Z" transform="translate(-962 -611)"/></g></g><g transform="translate(43.75 50)"><path class="b" d="M1024.667,626.25H985.083A2.082,2.082,0,0,1,983,624.167v-.352c0-9.465,11.019-16.315,18.448-16.315h27.385a2.082,2.082,0,0,1,2.083,2.083v9.723C1030.917,623.135,1028.112,626.25,1024.667,626.25Zm-37.308-4.167h37.308c1.129,0,2.083-1.271,2.083-2.777v-7.64h-25.3C996.3,611.667,988.658,616.2,987.358,622.083Z" transform="translate(-983 -607.5)"/><g transform="translate(33.333 7.292)"><path class="b" d="M1011.5,615.167h-10.417a2.083,2.083,0,0,1,0-4.167H1011.5a2.083,2.083,0,0,1,0,4.167Z" transform="translate(-999 -611)"/></g></g><g transform="translate(32.821)"><path class="c" d="M989.9,625.569a2.081,2.081,0,0,1-2.083-2.083V611.819h-7.981a2.082,2.082,0,0,1-1.992-2.692l7.381-24.152a2.08,2.08,0,0,1,1.992-1.475h16.773a2.084,2.084,0,0,1,1.992,2.692l-3.936,12.881h7.981a2.083,2.083,0,0,1,1.548,3.479L991.45,624.881A2.088,2.088,0,0,1,989.9,625.569Zm-7.25-17.917h7.25a2.081,2.081,0,0,1,2.083,2.083v8.327l13.36-14.823h-6.115a2.086,2.086,0,0,1-1.992-2.692l3.935-12.881H988.76Z" transform="translate(-977.754 -583.5)"/></g></g></svg>