<svg xmlns="http://www.w3.org/2000/svg" width="136.808" height="100" viewBox="0 0 136.808 100"><defs><style>.a{fill:#e74c3c;}.b{fill:#34495e;}</style></defs><g transform="translate(0 0)"><path class="a" d="M784.046,658.936c0,6.07,5.326,11.013,11.865,11.013s11.865-4.942,11.865-11.013-5.322-11.013-11.865-11.013S784.046,652.866,784.046,658.936Zm18.29,0a6.443,6.443,0,1,1-6.425-5.962A6.215,6.215,0,0,1,802.336,658.936Z" transform="translate(-727.524 -612.029)"/><path class="b" d="M818.931,649.13a2.546,2.546,0,0,0-2.316-2.592H791.447a2.863,2.863,0,0,0-1.976.788L773.324,662.66a2.4,2.4,0,0,0-.749,1.739v50.569a2.626,2.626,0,0,0,2.72,2.523h58.384a2.626,2.626,0,0,0,2.72-2.523V702.838a4.578,4.578,0,0,1,9.13,0v12.131a2.626,2.626,0,0,0,2.72,2.523h58.379a2.626,2.626,0,0,0,2.72-2.523l.035-49.766a4.222,4.222,0,0,0-1.311-3.06L892.423,647.3a2.757,2.757,0,0,0-1.9-.759H864.874a2.152,2.152,0,0,0-2.336,2.429,2.308,2.308,0,0,0,2.336,2.622h24.459l10.835,10.288,3.74,3.765v46.8H850.969v-9.6c0-5.12-4.489-9.288-10.008-9.288s-10,4.169-10,9.288v9.6H778.015V665.429l14.575-13.841h24.025S818.986,651.337,818.931,649.13Z" transform="translate(-772.575 -617.491)"/><path class="a" d="M883.056,685.024H859.489l-25.874-27.7v-1.961a7.215,7.215,0,0,0,.853.049,12.135,12.135,0,0,0,4.306-1.005,9.147,9.147,0,0,1,5.785-.744,2.887,2.887,0,0,0,2.316-.473,2.46,2.46,0,0,0,1.034-1.981v-6.982a2.438,2.438,0,0,0-.808-1.794,6.535,6.535,0,0,0-4.9-1.784,14.131,14.131,0,0,0-3.942.951c-2.094.725-3.907,1.355-6.194.345l0,.005a2.824,2.824,0,0,0-1.163-.246,2.626,2.626,0,0,0-2.72,2.523v13.1l-25.868,27.7H777.858a2.53,2.53,0,1,0,0,5.046h25.691a2.814,2.814,0,0,0,2.055-.867L830.9,662.117,856.188,689.2a2.819,2.819,0,0,0,2.055.867h24.814s2.474-.089,2.474-2.351S883.056,685.024,883.056,685.024Zm-49.441-37.536a16.023,16.023,0,0,0,6.544-1.158,9.978,9.978,0,0,1,2.311-.636v2.72a16.7,16.7,0,0,0-5.726,1.311c-1.73.646-2.326.867-3.129.35Z" transform="translate(-762.509 -640.639)"/><g transform="translate(41.951 56.398)"><path class="b" d="M783.552,682.753a2.462,2.462,0,0,1-2.464-2.464v-25.74a2.464,2.464,0,1,1,4.927,0v25.74A2.464,2.464,0,0,1,783.552,682.753Z" transform="translate(-781.089 -652.085)"/><g transform="translate(47.983)"><path class="b" d="M793.29,682.753a2.461,2.461,0,0,1-2.464-2.464v-25.74a2.464,2.464,0,1,1,4.927,0v25.74A2.465,2.465,0,0,1,793.29,682.753Z" transform="translate(-790.827 -652.085)"/></g></g></g></svg>