<?xml version="1.0" encoding="UTF-8" standalone="no"?>
<svg xmlns:dc="http://purl.org/dc/elements/1.1/" xmlns:cc="http://creativecommons.org/ns#" xmlns:rdf="http://www.w3.org/1999/02/22-rdf-syntax-ns#" xmlns:svg="http://www.w3.org/2000/svg" xmlns="http://www.w3.org/2000/svg" xmlns:sodipodi="http://sodipodi.sourceforge.net/DTD/sodipodi-0.dtd" xmlns:inkscape="http://www.inkscape.org/namespaces/inkscape" id="Capa_1" data-name="Capa 1" viewBox="0 0 329.99999 329.99999" version="1.1" sodipodi:docname="school-manangement-software.svg" width="330" height="330" inkscape:version="0.92.3 (2405546, 2018-03-11)">
  <metadata id="metadata237">
    <rdf:RDF>
      <cc:Work rdf:about="">
        <dc:format>image/svg+xml</dc:format>
        <dc:type rdf:resource="http://purl.org/dc/dcmitype/StillImage"/>
        <dc:title>School-Management-software</dc:title>
      </cc:Work>
    </rdf:RDF>
  </metadata>
  <sodipodi:namedview pagecolor="#ffffff" bordercolor="#666666" borderopacity="1" objecttolerance="10" gridtolerance="10" guidetolerance="10" inkscape:pageopacity="0" inkscape:pageshadow="2" inkscape:window-width="956" inkscape:window-height="1041" id="namedview235" showgrid="false" inkscape:zoom="0.55503291" inkscape:cx="11.711017" inkscape:cy="212.60001" inkscape:window-x="2880" inkscape:window-y="37" inkscape:window-maximized="0" inkscape:current-layer="Capa_1"/>
  <defs id="defs4">
    <style id="style2">.cls-1,.cls-3{fill:#b2b1b2;}.cls-2{fill:#fff;}.cls-3{opacity:0.41;}.cls-4{fill:#e94e27;}.cls-5{fill:#d2ecfc;}.cls-6{fill:#eef0f7;}.cls-7{fill:#182c4b;}.cls-8{fill:#dbe1e2;}.cls-9{fill:#1b3f59;}.cls-10,.cls-11,.cls-12{fill:none;}.cls-10,.cls-12{stroke:#fff;}.cls-10{stroke-linecap:round;stroke-linejoin:round;stroke-width:3px;}.cls-11{stroke:#1b3f59;stroke-width:2px;}.cls-11,.cls-12{stroke-miterlimit:10;}</style>
  </defs>
  <title id="title6">School-Management-software</title>
  <g id="g352" transform="translate(-45.042374,-73.976292)">
    <path id="path8" d="m 352.41,249.56 a 150.59,150.59 0 0 0 -164,-152 l -1.09,-1 c 2.85,-0.27 5.72,-0.47 8.61,-0.58 A 151.87,151.87 0 0 1 353.43,242 c 0.11,2.89 0.13,5.76 0.08,8.63 z" class="cls-1" inkscape:connector-curvature="0" style="fill:#b2b1b2"/>
    <path id="path10" d="m 71.49,171.6 -0.81,-0.75 a 153.31,153.31 0 0 1 55.9,-55.16 l 0.84,0.78 A 151.13,151.13 0 0 0 71.49,171.6 Z" class="cls-1" inkscape:connector-curvature="0" style="fill:#b2b1b2"/>
    <path id="path12" d="m 52.1,229 a 150.69,150.69 0 0 0 47.09,129.39 c 61,56.52 156.62,52.86 213.13,-8.15 a 149.93,149.93 0 0 0 25.92,-38.48 l 0.85,0.79 A 151.93,151.93 0 0 1 51.08,228 Z" class="cls-1" inkscape:connector-curvature="0" style="fill:#b2b1b2"/>
    <path id="path14" d="M 311.3,187.66 A 125,125 0 0 0 120.94,152.33 l -0.67,-0.74 a 126,126 0 0 1 174.8,11.58 126.82,126.82 0 0 1 17.41,24.49 z" class="cls-1" inkscape:connector-curvature="0" style="fill:#b2b1b2"/>
    <path id="path16" d="m 326.42,240.55 h 1.06 a 127.94,127.94 0 0 1 0,13.43 125.11,125.11 0 0 1 -38.2,84.28 l -0.67,-0.74 a 124.86,124.86 0 0 0 37.81,-96.97 z" class="cls-1" inkscape:connector-curvature="0" style="fill:#b2b1b2"/>
    <path id="path18" d="m 90.86,187.66 q 1.9,-3.49 4,-6.88 l 0.73,0.81 q -1.86,3 -3.54,6.07 z" class="cls-1" inkscape:connector-curvature="0" style="fill:#b2b1b2"/>
    <path id="path20" d="M 75.88,240.55 H 77 a 124.92,124.92 0 0 0 180,119.28 l 0.73,0.8 A 126,126 0 0 1 75.83,241.52 c 0.01,-0.32 0.04,-0.65 0.05,-0.97 z" class="cls-1" inkscape:connector-curvature="0" style="fill:#b2b1b2"/>
    <path id="path22" d="m 150.67,373 c -1.84,-0.77 -3.68,-1.59 -5.49,-2.43 l 0.43,-0.91 c 1.79,0.84 3.62,1.66 5.44,2.42 z" class="cls-1" inkscape:connector-curvature="0" style="fill:#b2b1b2"/>
    <path id="path24" d="m 311.06,328.2 0.8,0.6 c -1.19,1.59 -2.43,3.18 -3.68,4.72 l -0.77,-0.63 c 1.24,-1.53 2.47,-3.11 3.65,-4.69 z" class="cls-1" inkscape:connector-curvature="0" style="fill:#b2b1b2"/>
    <path id="path26" d="m 317.74,318.37 0.85,0.52 c -1,1.69 -2.14,3.38 -3.25,5 l -0.83,-0.56 c 1.11,-1.61 2.2,-3.33 3.23,-4.96 z" class="cls-1" inkscape:connector-curvature="0" style="fill:#b2b1b2"/>
    <path id="path28" d="m 332.21,285.82 1,0.28 c -0.56,1.92 -1.17,3.84 -1.81,5.72 l -0.94,-0.32 c 0.59,-1.87 1.19,-3.78 1.75,-5.68 z" class="cls-1" inkscape:connector-curvature="0" style="fill:#b2b1b2"/>
    <path id="path30" d="m 295.23,345.93 0.69,0.73 c -1.45,1.36 -2.95,2.71 -4.47,4 l -0.65,-0.75 c 1.5,-1.29 2.99,-2.63 4.43,-3.98 z" class="cls-1" inkscape:connector-curvature="0" style="fill:#b2b1b2"/>
    <path id="path32" d="m 323.52,308 0.89,0.45 c -0.89,1.78 -1.83,3.56 -2.8,5.3 l -0.87,-0.48 c 0.96,-1.76 1.9,-3.53 2.78,-5.27 z" class="cls-1" inkscape:connector-curvature="0" style="fill:#b2b1b2"/>
    <path id="path34" d="m 328.36,297.09 0.92,0.37 c -0.72,1.85 -1.5,3.71 -2.31,5.53 l -0.91,-0.4 c 0.8,-1.81 1.57,-3.66 2.3,-5.5 z" class="cls-1" inkscape:connector-curvature="0" style="fill:#b2b1b2"/>
    <path id="path36" d="m 161.93,377.1 c -1.9,-0.6 -3.81,-1.25 -5.67,-1.93 l 0.34,-0.94 c 1.85,0.68 3.75,1.33 5.63,1.92 z" class="cls-1" inkscape:connector-curvature="0" style="fill:#b2b1b2"/>
    <path id="path38" d="m 185.46,381.31 -0.13,1 c -2,-0.26 -4,-0.57 -5.93,-0.91 l 0.17,-1 c 1.95,0.35 3.93,0.65 5.89,0.91 z" class="cls-1" inkscape:connector-curvature="0" style="fill:#b2b1b2"/>
    <path id="path40" d="m 173.73,379.24 -0.21,1 c -2,-0.44 -3.91,-0.92 -5.83,-1.43 l 0.26,-1 c 1.91,0.53 3.85,1 5.78,1.43 z" class="cls-1" inkscape:connector-curvature="0" style="fill:#b2b1b2"/>
    <path id="path42" d="m 286.2,353.69 0.62,0.79 c -1.57,1.23 -3.18,2.44 -4.8,3.6 l -0.58,-0.81 c 1.61,-1.16 3.21,-2.36 4.76,-3.58 z" class="cls-1" inkscape:connector-curvature="0" style="fill:#b2b1b2"/>
    <path id="path44" d="m 276.52,360.63 0.55,0.83 c -1.67,1.09 -3.39,2.16 -5.1,3.17 l -0.51,-0.86 c 1.7,-1 3.41,-2.06 5.06,-3.14 z" class="cls-1" inkscape:connector-curvature="0" style="fill:#b2b1b2"/>
    <path id="path46" d="m 251.78,373.34 c 1.25,-0.49 2.5,-1 3.73,-1.51 l 0.39,0.92 c -1.41,0.59 -2.84,1.16 -4.27,1.72 z" class="cls-1" inkscape:connector-curvature="0" style="fill:#b2b1b2"/>
    <path id="path48" d="m 266.27,366.69 0.47,0.88 c -1.76,0.94 -3.57,1.85 -5.37,2.71 l -0.43,-0.9 c 1.79,-0.85 3.58,-1.76 5.33,-2.69 z" class="cls-1" inkscape:connector-curvature="0" style="fill:#b2b1b2"/>
    <path id="path50" d="m 303.54,337.41 0.75,0.67 c -1.33,1.48 -2.71,3 -4.09,4.38 l -0.72,-0.7 c 1.38,-1.41 2.75,-2.87 4.06,-4.35 z" class="cls-1" inkscape:connector-curvature="0" style="fill:#b2b1b2"/>
    <path id="path52" d="m 307.07,162.38 0.77,-0.64 c 1.27,1.54 2.52,3.13 3.71,4.72 l -0.8,0.6 c -1.18,-1.58 -2.42,-3.15 -3.68,-4.68 z" class="cls-1" inkscape:connector-curvature="0" style="fill:#b2b1b2"/>
    <path id="path54" d="m 291.08,144.63 c 1.51,1.29 3,2.64 4.47,4 l -0.68,0.73 c -1.45,-1.35 -2.94,-2.69 -4.44,-4 z" class="cls-1" inkscape:connector-curvature="0" style="fill:#b2b1b2"/>
    <path id="path56" d="m 299.84,152.82 c 1.39,1.42 2.77,2.89 4.1,4.37 l -0.74,0.67 c -1.33,-1.48 -2.7,-2.94 -4.08,-4.34 z" class="cls-1" inkscape:connector-curvature="0" style="fill:#b2b1b2"/>
    <path id="path58" d="m 282.49,137.88 c 1.33,1 2.66,2 3.95,3 l -0.62,0.79 c -1.14,-0.89 -2.3,-1.77 -3.48,-2.62 z" class="cls-1" inkscape:connector-curvature="0" style="fill:#b2b1b2"/>
    <path id="path60" d="m 226.62,115.26 0.17,-1 c 1.77,0.31 3.55,0.67 5.31,1.06 l -0.13,1 c -1.77,-0.38 -3.57,-0.74 -5.35,-1.06 z" class="cls-1" inkscape:connector-curvature="0" style="fill:#b2b1b2"/>
    <path id="path62" d="m 197.27,382.34 -0.13,1 c -1.94,-0.08 -3.91,-0.21 -5.84,-0.38 l 0.08,-1 c 1.95,0.17 3.94,0.3 5.89,0.38 z" class="cls-1" inkscape:connector-curvature="0" style="fill:#b2b1b2"/>
    <path id="path64" d="m 315,171.34 c 1.12,1.65 2.23,3.34 3.28,5 l -0.85,0.53 c -1,-1.68 -2.14,-3.36 -3.25,-5 z" class="cls-1" inkscape:connector-curvature="0" style="fill:#b2b1b2"/>
    <path id="path66" d="m 321.37,181.54 c 1,1.74 1.92,3.52 2.82,5.3 l -0.89,0.45 c -0.89,-1.77 -1.83,-3.54 -2.8,-5.26 z" class="cls-1" inkscape:connector-curvature="0" style="fill:#b2b1b2"/>
    <path id="path68" d="m 334.65,214.94 c 0.48,1.94 0.93,3.91 1.33,5.87 l -1,0.2 c -0.39,-1.95 -0.84,-3.9 -1.32,-5.82 z" class="cls-1" inkscape:connector-curvature="0" style="fill:#b2b1b2"/>
    <path id="path70" d="m 326.78,192.26 c 0.82,1.82 1.6,3.68 2.34,5.53 l -0.93,0.37 c -0.73,-1.84 -1.51,-3.69 -2.32,-5.49 z" class="cls-1" inkscape:connector-curvature="0" style="fill:#b2b1b2"/>
    <path id="path72" d="m 331.22,203.42 c 0.65,1.89 1.27,3.81 1.84,5.72 l -0.95,0.29 c -0.57,-1.9 -1.19,-3.81 -1.84,-5.68 z" class="cls-1" inkscape:connector-curvature="0" style="fill:#b2b1b2"/>
    <path id="path74" d="m 73,286.64 c -0.58,-1.92 -1.11,-3.87 -1.6,-5.8 l 1,-0.24 c 0.48,1.92 1,3.85 1.58,5.75 z" class="cls-1" inkscape:connector-curvature="0" style="fill:#b2b1b2"/>
    <path id="path76" d="m 79.93,193.19 -0.91,-0.4 c 0.8,-1.82 1.66,-3.65 2.55,-5.43 l 0.89,0.44 c -0.88,1.77 -1.73,3.59 -2.53,5.39 z" class="cls-1" inkscape:connector-curvature="0" style="fill:#b2b1b2"/>
    <path id="path78" d="m 98.55,162.87 -0.77,-0.63 c 1.25,-1.55 2.56,-3.08 3.88,-4.57 l 0.75,0.67 c -1.31,1.47 -2.61,2.99 -3.86,4.53 z" class="cls-1" inkscape:connector-curvature="0" style="fill:#b2b1b2"/>
    <path id="path80" d="m 139.82,367.87 c -1.76,-0.93 -3.52,-1.91 -5.23,-2.91 l 0.5,-0.86 c 1.7,1 3.45,2 5.19,2.89 z" class="cls-1" inkscape:connector-curvature="0" style="fill:#b2b1b2"/>
    <path id="path82" d="m 91.45,172.41 -0.82,-0.56 c 1.11,-1.65 2.28,-3.29 3.46,-4.89 l 0.81,0.6 c -1.18,1.58 -2.34,3.21 -3.45,4.85 z" class="cls-1" inkscape:connector-curvature="0" style="fill:#b2b1b2"/>
    <path id="path84" d="m 202.62,113.17 v -1 c 2,0 4,0 6,0.12 l -0.05,1 c -1.97,-0.08 -3.97,-0.13 -5.95,-0.12 z" class="cls-1" inkscape:connector-curvature="0" style="fill:#b2b1b2"/>
    <path id="path86" d="m 220.73,114.35 h -0.29 c -2,-0.25 -4,-0.47 -5.92,-0.64 l 0.08,-1 c 2,0.17 4,0.39 6,0.65 h 0.29 z" class="cls-1" inkscape:connector-curvature="0" style="fill:#b2b1b2"/>
    <path id="path88" d="m 190.73,113.72 -0.09,-1 c 2,-0.18 4,-0.31 6,-0.41 v 1 c -1.95,0.09 -3.95,0.23 -5.91,0.41 z" class="cls-1" inkscape:connector-curvature="0" style="fill:#b2b1b2"/>
    <path id="path90" d="m 155.94,121.66 -0.35,-0.94 c 1.87,-0.7 3.78,-1.37 5.68,-2 l 0.3,1 c -1.87,0.58 -3.77,1.28 -5.63,1.94 z" class="cls-1" inkscape:connector-curvature="0" style="fill:#b2b1b2"/>
    <path id="path92" d="m 167.29,118 -0.27,-1 c 1.92,-0.53 3.89,-1 5.84,-1.47 l 0.22,1 c -1.94,0.47 -3.89,0.92 -5.79,1.47 z" class="cls-1" inkscape:connector-curvature="0" style="fill:#b2b1b2"/>
    <path id="path94" d="m 178.93,115.32 -0.18,-1 c 2,-0.36 4,-0.67 5.93,-0.94 l 0.13,1 c -1.96,0.27 -3.93,0.62 -5.88,0.94 z" class="cls-1" inkscape:connector-curvature="0" style="fill:#b2b1b2"/>
    <path id="path96" d="m 85.23,182.53 -0.87,-0.48 c 1,-1.74 2,-3.48 3,-5.17 l 0.85,0.52 c -1.01,1.68 -2.02,3.4 -2.98,5.13 z" class="cls-1" inkscape:connector-curvature="0" style="fill:#b2b1b2"/>
    <path id="path98" d="m 102.21,338.56 c -1.33,-1.48 -2.65,-3 -3.92,-4.55 l 0.78,-0.63 c 1.25,1.52 2.56,3 3.88,4.51 z" class="cls-1" inkscape:connector-curvature="0" style="fill:#b2b1b2"/>
    <path id="path100" d="m 94.59,329.3 c -1.2,-1.59 -2.38,-3.23 -3.5,-4.88 l 0.82,-0.56 c 1.12,1.63 2.29,3.26 3.47,4.84 z" class="cls-1" inkscape:connector-curvature="0" style="fill:#b2b1b2"/>
    <path id="path102" d="m 87.81,319.4 c -1.06,-1.7 -2.08,-3.43 -3.06,-5.17 l 0.87,-0.49 c 1,1.72 2,3.45 3,5.13 z" class="cls-1" inkscape:connector-curvature="0" style="fill:#b2b1b2"/>
    <path id="path104" d="m 129.49,361.83 c -1.67,-1.08 -3.34,-2.21 -5,-3.36 l 0.58,-0.82 c 1.61,1.15 3.26,2.27 4.92,3.34 z" class="cls-1" inkscape:connector-curvature="0" style="fill:#b2b1b2"/>
    <path id="path106" d="m 81.92,308.93 c -0.9,-1.78 -1.77,-3.6 -2.59,-5.41 l 0.91,-0.42 c 0.81,1.81 1.68,3.62 2.57,5.38 z" class="cls-1" inkscape:connector-curvature="0" style="fill:#b2b1b2"/>
    <path id="path108" d="m 119.72,354.89 c -1.56,-1.22 -3.12,-2.49 -4.64,-3.79 l 0.65,-0.76 c 1.5,1.29 3,2.55 4.61,3.76 z" class="cls-1" inkscape:connector-curvature="0" style="fill:#b2b1b2"/>
    <path id="path110" d="m 110.61,347.11 c -1.46,-1.36 -2.9,-2.76 -4.3,-4.18 l 0.72,-0.7 c 1.38,1.41 2.81,2.81 4.26,4.15 z" class="cls-1" inkscape:connector-curvature="0" style="fill:#b2b1b2"/>
    <path id="path112" d="m 70,227.39 -1,-0.15 c 0.3,-2 0.65,-4 1,-5.91 l 1,0.2 c -0.41,1.92 -0.75,3.9 -1,5.86 z" class="cls-1" inkscape:connector-curvature="0" style="fill:#b2b1b2"/>
    <path id="path114" d="m 77,298 c -0.74,-1.85 -1.45,-3.75 -2.1,-5.63 l 0.94,-0.33 c 0.65,1.87 1.35,3.75 2.09,5.59 z" class="cls-1" inkscape:connector-curvature="0" style="fill:#b2b1b2"/>
    <path id="path116" d="m 75.59,204.28 -0.94,-0.32 c 0.64,-1.89 1.34,-3.78 2.06,-5.64 l 0.93,0.37 c -0.72,1.84 -1.41,3.72 -2.05,5.59 z" class="cls-1" inkscape:connector-curvature="0" style="fill:#b2b1b2"/>
    <path id="path118" d="m 72.26,215.71 -1,-0.24 c 0.47,-1.93 1,-3.88 1.55,-5.79 l 1,0.28 c -0.56,1.9 -1.08,3.83 -1.55,5.75 z" class="cls-1" inkscape:connector-curvature="0" style="fill:#b2b1b2"/>
    <path id="path120" d="m 67.66,239.17 c 0.13,-2 0.3,-4 0.52,-6 l 1,0.11 c -0.21,2 -0.39,4 -0.51,5.93 z" class="cls-1" inkscape:connector-curvature="0" style="fill:#b2b1b2"/>
    <path id="path122" d="m 70.1,275 c -0.4,-2 -0.76,-3.94 -1.07,-5.91 l 1,-0.15 c 0.31,1.95 0.67,3.92 1.06,5.86 z" class="cls-1" inkscape:connector-curvature="0" style="fill:#b2b1b2"/>
    <path id="path124" d="m 68.22,263.13 c -0.22,-2 -0.4,-4 -0.54,-6 l 1,-0.06 c 0.13,2 0.31,4 0.53,5.93 z" class="cls-1" inkscape:connector-curvature="0" style="fill:#b2b1b2"/>
    <path id="path126" d="m 67.41,251.16 c 0,-2 0,-4 0,-6 h 1 c 0,2 0,4 0,6 z" class="cls-1" inkscape:connector-curvature="0" style="fill:#b2b1b2"/>
    <rect id="rect128" height="3.22" width="2.6900001" y="65.739998" x="135.09" class="cls-2" style="fill:#ffffff"/>
    <path id="path130" d="m 369.47,303.78 a 26.51,26.51 0 1 1 -26.47,-26.5 26.51,26.51 0 0 1 26.47,26.5 z" class="cls-3" inkscape:connector-curvature="0" style="opacity:0.41000001;fill:#b2b1b2"/>
    <path id="path132" d="m 370.8,304.79 a 26.16,26.16 0 1 1 -26.15,-26.16 26.15,26.15 0 0 1 26.15,26.16 z" class="cls-4" inkscape:connector-curvature="0" style="fill:#e94e27"/>
    <path id="path134" d="m 337.14,312.5 -2.08,-0.32 -0.54,-5.72 a 4.61,4.61 0 1 0 -9.2,0.59 l 0.57,6 a 4.59,4.59 0 0 0 3,4 3.06,3.06 0 0 0 1.44,0.3 l 4.37,0.21 a 0.79,0.79 0 0 0 0.83,-0.75 0.81,0.81 0 0 0 -0.75,-0.83 l -4.42,-0.2 h -0.08 a 1.44,1.44 0 0 1 -0.71,-0.15 0.29,0.29 0 0 0 -0.1,0 3.06,3.06 0 0 1 -2,-2.68 l -0.56,-6 a 3.0350494,3.0350494 0 1 1 6.06,-0.35 l 0.57,6 v 0.27 a 0.78,0.78 0 0 0 0.66,0.8 l 2.72,0.42 a 0.67,0.67 0 0 1 0.57,0.67 v 6.63 a 0.8,0.8 0 0 0 1.59,0 v -6.63 a 2.28,2.28 0 0 0 -1.94,-2.26 z" class="cls-2" inkscape:connector-curvature="0" style="fill:#ffffff"/>
    <path id="path136" d="m 330.2,300.33 a 4.13,4.13 0 1 0 -4.13,-4.13 4.14,4.14 0 0 0 4.13,4.13 z m 0,-6.69 a 2.56,2.56 0 1 1 -2.56,2.56 2.55,2.55 0 0 1 2.56,-2.56 z" class="cls-2" inkscape:connector-curvature="0" style="fill:#ffffff"/>
    <path id="path138" d="m 360.14,302.14 a 4.61,4.61 0 0 0 -4.87,4.29 l -0.54,5.75 -2.08,0.32 a 2.25,2.25 0 0 0 -1.91,2.22 v 6.63 a 0.8,0.8 0 0 0 1.59,0 v -6.63 a 0.69,0.69 0 0 1 0.57,-0.67 l 2.72,-0.42 a 0.78,0.78 0 0 0 0.66,-0.8 v -0.24 l 0.58,-6 a 3.0294967,3.0294967 0 0 1 6.05,0.33 l -0.57,6 a 3,3 0 0 1 -2,2.65 0.19,0.19 0 0 1 -0.1,0 1.33,1.33 0 0 1 -0.71,0.14 h -0.08 l -4.42,0.21 a 0.79,0.79 0 0 0 -0.75,0.83 0.77,0.77 0 0 0 0.83,0.74 l 4.37,-0.2 A 3.11,3.11 0 0 0 361,317 a 4.64,4.64 0 0 0 3,-4 l 0.57,-6 a 4.6,4.6 0 0 0 -4.43,-4.86 z" class="cls-2" inkscape:connector-curvature="0" style="fill:#ffffff"/>
    <path id="path140" d="m 359.59,300.33 a 4.13,4.13 0 1 0 -4.13,-4.13 4.14,4.14 0 0 0 4.13,4.13 z m 0,-6.69 a 2.56,2.56 0 1 1 -2.59,2.56 2.56,2.56 0 0 1 2.59,-2.56 z" class="cls-2" inkscape:connector-curvature="0" style="fill:#ffffff"/>
    <path id="path142" d="m 353,298.37 v -10 a 0.85,0.85 0 0 0 -0.84,-0.84 h -14.58 a 0.85,0.85 0 0 0 -0.84,0.84 v 10 a 0.85,0.85 0 0 0 0.84,0.85 h 4.09 l 2.67,2.66 a 0.76,0.76 0 0 0 1.11,0 l 2.67,-2.66 h 4.08 a 0.84,0.84 0 0 0 0.8,-0.85 z m -1.57,-0.73 h -3.69 a 0.74,0.74 0 0 0 -0.55,0.24 l -2.34,2.34 -2.33,-2.35 a 0.8,0.8 0 0 0 -0.56,-0.24 h -3.68 v -8.47 h 13.15 z" class="cls-2" inkscape:connector-curvature="0" style="fill:#ffffff"/>
    <path id="path144" d="m 152.22,357.08 a 26.51,26.51 0 1 1 -26.51,-26.51 26.5,26.5 0 0 1 26.51,26.51 z" class="cls-3" inkscape:connector-curvature="0" style="opacity:0.41000001;fill:#b2b1b2"/>
    <path id="path146" d="M 150,359.08 A 26.51,26.51 0 1 1 123.49,332.57 26.5,26.5 0 0 1 150,359.08 Z" class="cls-5" inkscape:connector-curvature="0" style="fill:#d2ecfc"/>
    <path id="path148" d="m 113,345.43 4.29,1.89 a 7.46,7.46 0 0 0 -1.29,4.21 7.54,7.54 0 1 0 15.08,0 7.64,7.64 0 0 0 -1.25,-4.18 l 3.77,-1.77 v 7.17 l -1.15,2.44 a 0.53,0.53 0 0 0 0,0.52 0.63,0.63 0 0 0 0.48,0.26 h 2.18 a 0.45,0.45 0 0 0 0.45,-0.26 0.51,0.51 0 0 0 0,-0.52 l -1,-2.44 v -7.65 c 0,-0.3 0,-0.52 -0.55,-0.74 l -10.28,-4.55 a 0.49,0.49 0 0 0 -0.44,0 L 113,344.4 a 0.57,0.57 0 0 0 -0.33,0.51 0.55,0.55 0 0 0 0.33,0.52 z m 16.94,6.1 a 6.44,6.44 0 1 1 -12.87,0 6.54,6.54 0 0 1 1.22,-3.77 l 5,2.26 a 0.56,0.56 0 0 0 0.22,0 0.53,0.53 0 0 0 0.22,0 l 5,-2.22 a 6.28,6.28 0 0 1 1.18,3.73 z m 3.88,3.33 0.26,-0.55 0.22,0.55 z m -10.24,-13.94 9,4 -9,4 -9,-4 z" class="cls-2" inkscape:connector-curvature="0" style="fill:#ffffff"/>
    <path id="path150" d="m 123.7,360.41 a 13.11,13.11 0 0 0 -13.09,13.09 0.57,0.57 0 0 0 0.55,0.55 h 25.07 a 0.57,0.57 0 0 0 0.56,-0.55 13.11,13.11 0 0 0 -13.09,-13.09 z m -12,12.53 a 12,12 0 0 1 23.93,0 z" class="cls-2" inkscape:connector-curvature="0" style="fill:#ffffff"/>
    <polygon id="polygon152" points="175.6,346.47 178.74,323.26 227.04,323.26 230.17,346.47 " class="cls-6" style="fill:#eef0f7"/>
    <rect id="rect154" rx="5.8000002" height="151.17999" width="205.25" y="173.34" x="99.989998" class="cls-7" style="fill:#182c4b"/>
    <path id="path156" d="m 100,303.19 v 17.69 a 3.64,3.64 0 0 0 3.64,3.64 h 198 a 3.64,3.64 0 0 0 3.64,-3.64 v -17.69 z" class="cls-2" inkscape:connector-curvature="0" style="fill:#ffffff"/>
    <rect id="rect158" height="116.05" width="191.32001" y="180.24001" x="106.6" class="cls-6" style="fill:#eef0f7"/>
    <circle id="circle160" r="4.6999998" cy="315.42001" cx="202.89" class="cls-8" style="fill:#dbe1e2"/>
    <path id="path162" d="M 235.19,350.86 H 168.7 a 6.27,6.27 0 0 1 6.27,-6.27 h 53.95 a 6.27,6.27 0 0 1 6.27,6.27 z" class="cls-6" inkscape:connector-curvature="0" style="fill:#eef0f7"/>
    <rect id="rect164" height="8.1999998" width="21.700001" y="203.53" x="192.96001" class="cls-4" style="fill:#e94e27"/>
    <polygon id="polygon166" points="214.66,211.73 192.96,211.73 192.96,205.93 169.75,205.93 169.75,256.58 237.81,256.58 237.81,205.93 214.66,205.93 " class="cls-5" style="fill:#d2ecfc"/>
    <path id="path168" d="m 238.87,256.58 h -70.12 a 2.12,2.12 0 0 0 -2.12,2.12 v 0.11 a 2.12,2.12 0 0 0 2.12,2.12 h 70.06 a 2.12,2.12 0 0 0 2.12,-2.12 v -0.11 a 2.11,2.11 0 0 0 -2.06,-2.12 z" class="cls-4" inkscape:connector-curvature="0" style="fill:#e94e27"/>
    <rect id="rect170" height="5.3000002" width="15.45" y="251.28" x="214.88" class="cls-7" style="fill:#182c4b"/>
    <path id="path172" d="m 210.82,203.69 v 4.2 h -17.7 v -4.2 h 17.7 m 0.55,-2 h -18.81 a 1.44,1.44 0 0 0 -1.44,1.45 v 5.31 a 1.43,1.43 0 0 0 1.44,1.44 h 18.81 a 1.44,1.44 0 0 0 1.45,-1.44 v -5.31 a 1.45,1.45 0 0 0 -1.45,-1.45 z" class="cls-9" inkscape:connector-curvature="0" style="fill:#1b3f59"/>
    <path id="path174" d="m 234,206.15 v 46.65 h -64 v -46.65 h 19.15 v 2.29 a 3.46,3.46 0 0 0 3.45,3.45 h 18.85 a 3.46,3.46 0 0 0 3.45,-3.45 v -2.29 H 234 m 0.55,-2 h -20.22 a 1.45,1.45 0 0 0 -1.46,1.45 v 2.84 a 1.45,1.45 0 0 1 -1.45,1.45 h -18.85 a 1.45,1.45 0 0 1 -1.45,-1.45 v -2.84 a 1.45,1.45 0 0 0 -1.46,-1.45 H 169.42 A 1.45,1.45 0 0 0 168,205.6 v 47.74 a 1.45,1.45 0 0 0 1.45,1.46 h 65.15 a 1.45,1.45 0 0 0 1.45,-1.46 V 205.6 a 1.45,1.45 0 0 0 -1.45,-1.45 z" class="cls-9" inkscape:connector-curvature="0" style="fill:#1b3f59"/>
    <rect id="rect176" height="5.3000002" width="15.45" y="249.5" x="213.10001" class="cls-10" style="fill:none;stroke:#ffffff;stroke-width:3px;stroke-linecap:round;stroke-linejoin:round"/>
    <polyline id="polyline178" points="220.91 281.63 213.32 259.15 190.67 259.15 183.09 281.63" class="cls-11" style="fill:none;stroke:#1b3f59;stroke-width:2px;stroke-miterlimit:10"/>
    <line id="line180" y2="268.29999" x2="216.05" y1="268.29999" x1="187.99001" class="cls-11" style="fill:none;stroke:#1b3f59;stroke-width:2px;stroke-miterlimit:10"/>
    <path id="path182" d="m 193.35,234.83 h -5.69 L 186.21,238 H 184 l 6.59,-14 6.24,14 h -2.17 z m -0.84,-1.9 -1.95,-4.46 -2.06,4.46 z" class="cls-2" inkscape:connector-curvature="0" style="fill:#ffffff"/>
    <path id="path184" d="m 201.38,224.79 c 1.73,0 2.79,0.22 3.63,1 a 3.35,3.35 0 0 1 1.06,2.62 2.75,2.75 0 0 1 -0.39,1.56 1.84,1.84 0 0 1 -1,0.9 3.72,3.72 0 0 1 1.73,0.95 3.41,3.41 0 0 1 0.89,2.45 3.15,3.15 0 0 1 -0.89,2.4 5.08,5.08 0 0 1 -3.68,1.28 h -3.29 v -13.16 z m 0,5.69 H 202 a 2.21,2.21 0 0 0 1.61,-0.51 2,2 0 0 0 0.5,-1.5 1.57,1.57 0 0 0 -0.5,-1.28 2.07,2.07 0 0 0 -1.61,-0.51 h -0.67 v 3.8 z m 0,5.63 h 1.23 a 3.73,3.73 0 0 0 2,-0.5 2,2 0 0 0 0.67,-1.45 2,2 0 0 0 -0.56,-1.4 2.88,2.88 0 0 0 -2.07,-0.61 h -1.28 z" class="cls-2" inkscape:connector-curvature="0" style="fill:#ffffff"/>
    <path id="path186" d="m 220.35,227.85 a 5.1,5.1 0 0 0 -3.57,-1.45 4.69,4.69 0 0 0 -4.8,5 4.78,4.78 0 0 0 4.85,5 5.57,5.57 0 0 0 3.57,-1.51 v 2.4 a 7.47,7.47 0 0 1 -3.62,1 6.73,6.73 0 0 1 -4.69,-1.84 6.47,6.47 0 0 1 -2.12,-5 6.93,6.93 0 0 1 2.12,-5.18 6.62,6.62 0 0 1 4.8,-1.73 6.13,6.13 0 0 1 3.51,1 v 2.39 z" class="cls-2" inkscape:connector-curvature="0" style="fill:#ffffff"/>
    <path id="path188" d="m 237,254.8 h -70 a 2.11,2.11 0 0 0 -2.12,2.12 V 257 a 2.11,2.11 0 0 0 2.12,2.12 h 70 a 2.12,2.12 0 0 0 2.12,-2.12 v -0.11 A 2.12,2.12 0 0 0 237,254.8 Z" class="cls-9" inkscape:connector-curvature="0" style="fill:#1b3f59"/>
    <path id="path190" d="m 338.54,137.26 a 33.64,33.64 0 1 1 -33.64,-33.63 33.64,33.64 0 0 1 33.64,33.63 z" class="cls-3" inkscape:connector-curvature="0" style="opacity:0.41000001;fill:#b2b1b2"/>
    <path id="path192" d="M 339.22,135.35 A 33.19,33.19 0 1 1 306,102.16 a 33.18,33.18 0 0 1 33.22,33.19 z" class="cls-9" inkscape:connector-curvature="0" style="fill:#1b3f59"/>
    <path id="path194" d="m 322.84,150.46 v 2.39 a 1.59,1.59 0 0 1 -1.59,1.59 h -3.18 a 1.59,1.59 0 0 1 -1.59,-1.59 v -1.59" class="cls-12" inkscape:connector-curvature="0" style="fill:none;stroke:#ffffff;stroke-miterlimit:10"/>
    <path id="path196" d="m 297.39,151.26 v 1.59 a 1.59,1.59 0 0 1 -1.59,1.59 h -3.18 a 1.59,1.59 0 0 1 -1.59,-1.59 v -2.39" class="cls-12" inkscape:connector-curvature="0" style="fill:none;stroke:#ffffff;stroke-miterlimit:10"/>
    <path id="path198" d="m 323.64,122.63 c 0,-4.11 -0.8,-6.36 -4.77,-6.36 H 296.6 c -4.77,0 -6.36,1.36 -6.36,5.56 v 26.25 c 0,2.63 2.13,3.18 4.77,3.18 h 23.86 c 2.63,0 4.77,-0.55 4.77,-3.18 z" class="cls-12" inkscape:connector-curvature="0" style="fill:none;stroke:#ffffff;stroke-miterlimit:10"/>
    <circle id="circle200" r="2.78" cy="145.28999" cx="317.67001" class="cls-12" style="fill:none;stroke:#ffffff;stroke-miterlimit:10"/>
    <circle id="circle202" r="2.78" cy="145.28999" cx="296.20001" class="cls-12" style="fill:none;stroke:#ffffff;stroke-miterlimit:10"/>
    <path id="path204" d="m 323.64,125.81 h 1.59 a 0.79,0.79 0 0 1 0.79,0.79 v 6.4 a 0.79,0.79 0 0 1 -0.79,0.79 h -1.59" class="cls-12" inkscape:connector-curvature="0" style="fill:none;stroke:#ffffff;stroke-miterlimit:10"/>
    <path id="path206" d="m 290.24,125.81 h -1.6 a 0.8,0.8 0 0 0 -0.79,0.79 v 6.4 a 0.79,0.79 0 0 0 0.79,0.79 h 1.6" class="cls-12" inkscape:connector-curvature="0" style="fill:none;stroke:#ffffff;stroke-miterlimit:10"/>
    <path id="path208" d="m 316.48,121 a 0.79,0.79 0 0 1 -0.79,0.79 H 299 A 0.79,0.79 0 0 1 298.21,121 v -1.59 a 0.79,0.79 0 0 1 0.79,-0.8 h 16.71 a 0.79,0.79 0 0 1 0.79,0.8 z" class="cls-12" inkscape:connector-curvature="0" style="fill:none;stroke:#ffffff;stroke-miterlimit:10"/>
    <path id="path210" d="m 318.07,138.47 -22.27,0.06 a 2.1,2.1 0 0 1 -2.38,-2.38 v -9.55 a 2.1,2.1 0 0 1 2.38,-2.38 h 22.27 a 2.11,2.11 0 0 1 2.39,2.38 v 9.55 a 2.45,2.45 0 0 1 -2.39,2.32 z" class="cls-12" inkscape:connector-curvature="0" style="fill:none;stroke:#ffffff;stroke-miterlimit:10"/>
    <path id="path212" d="m 93.15,114.79 a 26.3,26.3 0 1 1 6,36.7 26.31,26.31 0 0 1 -6,-36.7 z" class="cls-3" inkscape:connector-curvature="0" style="opacity:0.41000001;fill:#b2b1b2"/>
    <path id="path214" d="m 91.85,113.7 a 25.94,25.94 0 1 1 5.92,36.2 25.94,25.94 0 0 1 -5.92,-36.2 z" class="cls-7" inkscape:connector-curvature="0" style="fill:#182c4b"/>
    <path id="path216" d="m 125.54,126.06 h -24 a 4.2,4.2 0 0 1 0,-8.4 h 24 a 0.86,0.86 0 0 1 0.67,1.4 v 0 a 4.16,4.16 0 0 0 0,5.58 v 0 a 0.84,0.84 0 0 1 0.08,0.9 0.87,0.87 0 0 1 -0.75,0.52 z m -24,-7 a 2.79,2.79 0 0 0 0,5.57 h 23 a 5.28,5.28 0 0 1 0,-5.57 z" class="cls-2" inkscape:connector-curvature="0" style="fill:#ffffff"/>
    <path id="path218" d="m 129.25,133 h -24 a 4.2,4.2 0 0 1 0,-8.4 h 24 a 0.84,0.84 0 0 1 0.77,0.5 0.86,0.86 0 0 1 -0.1,0.91 v 0 a 4.19,4.19 0 0 0 0.06,5.59 v 0 a 0.84,0.84 0 0 1 0.08,0.9 0.86,0.86 0 0 1 -0.81,0.5 z m -24,-7 a 2.79,2.79 0 0 0 0,5.57 h 23 A 5.3,5.3 0 0 1 128.2,126 h -22.9 z" class="cls-2" inkscape:connector-curvature="0" style="fill:#ffffff"/>
    <path id="path220" d="m 125.54,140 h -24 a 4.2,4.2 0 1 1 0,-8.4 h 24 a 0.86,0.86 0 0 1 0.78,0.49 0.88,0.88 0 0 1 -0.11,0.92 v 0 a 4.18,4.18 0 0 0 0,5.59 v 0 a 0.84,0.84 0 0 1 0.08,0.9 0.85,0.85 0 0 1 -0.75,0.5 z m -24,-7 a 2.79,2.79 0 0 0 0,5.57 h 23 a 5.28,5.28 0 0 1 0,-5.57 z" class="cls-2" inkscape:connector-curvature="0" style="fill:#ffffff"/>
    <path id="path222" d="m 113.44,130 -3.51,-1.94 -3.51,1.94 v -9.4 h 7 z m -5.61,-8 v 5.58 l 2.1,-1.16 2.09,1.16 V 122 Z" class="cls-2" inkscape:connector-curvature="0" style="fill:#ffffff"/>
    <rect id="rect224" height="1.41" width="5.8400002" y="138.61" x="95.709999" class="cls-2" style="fill:#ffffff"/>
    <rect id="rect226" height="1.41" width="1.63" y="135.12" x="114.85" class="cls-2" style="fill:#ffffff"/>
    <rect id="rect228" height="1.41" width="8.3900003" y="120.64" x="114.37" class="cls-2" style="fill:#ffffff"/>
    <rect id="rect230" height="1.41" width="1.64" y="120.64" x="103.1" class="cls-2" style="fill:#ffffff"/>
    <rect id="rect232" height="1.41" width="3.0799999" y="135.12" x="109.93" class="cls-2" style="fill:#ffffff"/>
  </g>
</svg>