<svg id="Home-Students" xmlns="http://www.w3.org/2000/svg" width="164.146" height="100" viewBox="0 0 164.146 100">
  <g id="Group_206" data-name="Group 206" transform="translate(48.67)">
    <path id="Path_45" data-name="Path 45" d="M804.254,691.07a2.5,2.5,0,0,1-2.5-2.5V675.388a29.337,29.337,0,0,0-33-29.1c-14.616,1.775-25.642,14.8-25.642,30.3V688.57a2.5,2.5,0,0,1-5,0V676.594c0-18.032,12.916-33.188,30.038-35.264a34.324,34.324,0,0,1,38.609,34.059V688.57A2.5,2.5,0,0,1,804.254,691.07Z" transform="translate(-738.107 -641.075)" fill="#e74c3c"/>
  </g>
  <g id="Group_207" data-name="Group 207" transform="translate(45.49 59.996)">
    <path id="Path_46" data-name="Path 46" d="M809.978,693.077h-22.5a2.5,2.5,0,0,1,0-5h19.907a32.5,32.5,0,0,0-64.817,0h19.907a2.5,2.5,0,0,1,0,5h-22.5a2.5,2.5,0,0,1-2.5-2.5,37.5,37.5,0,0,1,75.008,0A2.5,2.5,0,0,1,809.978,693.077Z" transform="translate(-737.471 -653.073)" fill="#34495e"/>
  </g>
  <g id="Group_208" data-name="Group 208" transform="translate(60.491 12.491)">
    <path id="Path_47" data-name="Path 47" d="M762.973,688.577a22.5,22.5,0,1,1,22.5-22.5A22.527,22.527,0,0,1,762.973,688.577Zm0-40a17.5,17.5,0,1,0,17.5,17.5A17.527,17.527,0,0,0,762.973,648.573Z" transform="translate(-740.471 -643.573)" fill="#34495e"/>
  </g>
  <g id="Group_209" data-name="Group 209" transform="translate(71.742 32.493)">
    <path id="Path_48" data-name="Path 48" d="M753.972,661.324a11.265,11.265,0,0,1-11.251-11.251,2.5,2.5,0,0,1,2.5-2.5h17.5a2.5,2.5,0,0,1,2.5,2.5A11.265,11.265,0,0,1,753.972,661.324Zm-5.726-8.751a6.25,6.25,0,0,0,11.456,0Z" transform="translate(-742.721 -647.573)" fill="#34495e"/>
  </g>
  <g id="Group_210" data-name="Group 210" transform="translate(128.353 70.432)">
    <path id="Path_49" data-name="Path 49" d="M787.335,684.728H756.542a2.5,2.5,0,0,1,0-5H784.69a22.1,22.1,0,0,0-21.922-19.567,2.5,2.5,0,0,1,0-5,27.1,27.1,0,0,1,27.068,27.068A2.5,2.5,0,0,1,787.335,684.728Z" transform="translate(-754.042 -655.16)" fill="#34495e"/>
  </g>
  <g id="Group_211" data-name="Group 211" transform="translate(120.537 35.999)">
    <path id="Path_50" data-name="Path 50" d="M769.021,681.352a16.539,16.539,0,1,1,16.537-16.537A16.559,16.559,0,0,1,769.021,681.352Zm0-28.078a11.539,11.539,0,1,0,11.536,11.541A11.558,11.558,0,0,0,769.021,653.274Z" transform="translate(-752.479 -648.274)" fill="#34495e"/>
  </g>
  <g id="Group_212" data-name="Group 212" transform="translate(0 70.432)">
    <path id="Path_51" data-name="Path 51" d="M761.667,684.728H730.874a2.5,2.5,0,0,1-2.5-2.5,27.1,27.1,0,0,1,27.068-27.068,2.5,2.5,0,0,1,0,5,22.1,22.1,0,0,0-21.927,19.567h28.153a2.5,2.5,0,0,1,0,5Z" transform="translate(-728.374 -655.16)" fill="#34495e"/>
  </g>
  <g id="Group_213" data-name="Group 213" transform="translate(10.526 35.999)">
    <path id="Path_52" data-name="Path 52" d="M747.021,681.352a16.539,16.539,0,1,1,16.537-16.537A16.559,16.559,0,0,1,747.021,681.352Zm0-28.078a11.539,11.539,0,1,0,11.536,11.541A11.558,11.558,0,0,0,747.021,653.274Z" transform="translate(-730.479 -648.274)" fill="#34495e"/>
  </g>
</svg>