<svg xmlns="http://www.w3.org/2000/svg" width="60" height="60" viewBox="0 0 60 60"><defs><style>.a{fill:none;}.b{fill:#e74c3c;}</style></defs><rect class="a" width="60" height="60"/><g transform="translate(5.062 6.25)"><rect class="b" width="5" height="5" transform="translate(7.5 20.001)"/><rect class="b" width="5" height="5" transform="translate(17.5 20.001)"/><rect class="b" width="5" height="5" transform="translate(27.5 20.001)"/><rect class="b" width="5" height="5" transform="translate(7.5 30.001)"/><rect class="b" width="5" height="5" transform="translate(17.5 30.001)"/><path class="b" d="M461,189H438.5V164h35v6.25a1.25,1.25,0,0,0,1.25,1.25h0a1.25,1.25,0,0,0,1.25-1.25V156.5a2.5,2.5,0,0,0-2.5-2.5H471v-3.75a1.25,1.25,0,0,0-1.25-1.25h-5a1.25,1.25,0,0,0-1.25,1.25V154h-15v-3.75a1.25,1.25,0,0,0-1.25-1.25h-5a1.25,1.25,0,0,0-1.25,1.25V154h-2.5a2.5,2.5,0,0,0-2.5,2.5V189a2.5,2.5,0,0,0,2.5,2.5H461a1.25,1.25,0,0,0,1.25-1.25h0A1.25,1.25,0,0,0,461,189Zm5-37.5h2.5V154H466Zm-22.5,0H446V154h-2.5Zm-5,5h35v5h-35Z" transform="translate(-436 -149)"/><path class="b" d="M476.894,175.375l.945-.945a1.25,1.25,0,0,0-1.767-1.769l-.946.946a9.958,9.958,0,0,0-3.625-1.779V171.5a2.5,2.5,0,0,0-5,0v.329a10,10,0,1,0,10.394,3.546ZM474,182.75h-5a1.25,1.25,0,0,1-1.25-1.25v-5a1.25,1.25,0,0,1,2.5,0v3.75H474a1.25,1.25,0,1,1,0,2.5Z" transform="translate(-430.25 -144)"/></g></svg>