<svg xmlns="http://www.w3.org/2000/svg" width="38" height="38.001" viewBox="0 0 38 38.001"><defs><style>.a{fill:#c2c3c4;}</style></defs><g transform="translate(0)"><path class="a" d="M4797.834,2204h-31.667a3.17,3.17,0,0,1-3.167-3.167v-31.667a3.171,3.171,0,0,1,3.167-3.167h31.667a3.171,3.171,0,0,1,3.167,3.167v31.667A3.17,3.17,0,0,1,4797.834,2204Zm-26.208-16.331h0a6.379,6.379,0,0,0,5.386,3.951,13.664,13.664,0,0,1-8.013,2.6,16.335,16.335,0,0,0,7.453,2.311h1.795a16.032,16.032,0,0,0,15.129-16l-.023-.83a10.487,10.487,0,0,0,.943-.808,15.4,15.4,0,0,0,1.93-2.266,5.687,5.687,0,0,1-3.075.9h-.113l.046-.022a5.584,5.584,0,0,0,2.289-2.918,14.99,14.99,0,0,1-2.648,1.01l-.135.022-.674.158A5.645,5.645,0,0,0,4787.9,2174h-.112a6.215,6.215,0,0,0-1.3.135,5.657,5.657,0,0,0-1.729.741l-.4.269a5.835,5.835,0,0,0-1.729,2.177l-.224.539a4.866,4.866,0,0,0-.248,1.033l0,.012a3.32,3.32,0,0,0-.042.458v.314l.022.494.091.651h-.024l-.246.023h-.157a13.557,13.557,0,0,1-5.388-1.189l-.964-.472c-.131-.065-.264-.143-.381-.212l-.136-.079a14.711,14.711,0,0,1-2.917-2.334,16.058,16.058,0,0,1-1.459-1.841,6.366,6.366,0,0,0-.741,2.986,6.786,6.786,0,0,0,.112,1.189,3.324,3.324,0,0,0,.1.446l.007.025a6.256,6.256,0,0,0,1.8,2.986l.427.359-.54-.112a15.52,15.52,0,0,1-2.042-.674,6.294,6.294,0,0,0,1.482,3.681,6.205,6.205,0,0,0,3.1,2.043l-1.437.089-1.189-.067Z" transform="translate(-4763 -2165.999)"/></g></svg>