<svg xmlns="http://www.w3.org/2000/svg" width="100" height="100" viewBox="0 0 100 100"><defs><style>.a{fill:none;}.b{fill:#34495e;}.c{fill:#e74c3c;}</style></defs><rect class="a" width="100" height="100"/><g transform="translate(6.25 12.631)"><path class="b" d="M1140,634.813h-74.5a6.507,6.507,0,0,1-6.5-6.5V588.565a6.507,6.507,0,0,1,6.5-6.5H1140a6.508,6.508,0,0,1,6.5,6.5v39.748A6.507,6.507,0,0,1,1140,634.813Zm-74.5-48.583a2.338,2.338,0,0,0-2.333,2.335v39.748a2.338,2.338,0,0,0,2.333,2.333H1140a2.338,2.338,0,0,0,2.333-2.333V588.565A2.338,2.338,0,0,0,1140,586.23Z" transform="translate(-1059 -582.063)"/><g transform="translate(2.2 59.577)"><path class="b" d="M1141.073,614.827h-78.933a2.083,2.083,0,0,1,0-4.167h78.933a2.083,2.083,0,0,1,0,4.167Z" transform="translate(-1060.056 -610.66)"/></g><g transform="translate(2.2 70.571)"><path class="b" d="M1141.073,620.1h-78.933a2.083,2.083,0,0,1,0-4.167h78.933a2.083,2.083,0,0,1,0,4.167Z" transform="translate(-1060.056 -615.937)"/></g><g transform="translate(10.579 10.666)"><g transform="translate(8.31 19.418)"><path class="c" d="M1077.99,608.509a9.935,9.935,0,0,1-9.923-9.923,2.083,2.083,0,1,1,4.167,0,5.755,5.755,0,1,0,11.51,0,2.083,2.083,0,1,1,4.167,0A9.933,9.933,0,0,1,1077.99,608.509Z" transform="translate(-1068.067 -596.503)"/></g><g transform="translate(32.517 8.926)"><path class="c" d="M1081.769,601.909a2.082,2.082,0,0,1-2.083-2.083V593.55a2.083,2.083,0,1,1,4.167,0v6.275A2.083,2.083,0,0,1,1081.769,601.909Z" transform="translate(-1079.686 -591.467)"/></g><path class="c" d="M1082.311,608.419a2.089,2.089,0,0,1-.973-.242l-16.15-8.535a2.082,2.082,0,0,1,0-3.681l16.15-8.538a2.1,2.1,0,0,1,1.95,0l16.148,8.538a2.082,2.082,0,0,1,0,3.681l-16.148,8.535A2.09,2.09,0,0,1,1082.311,608.419ZM1070.62,597.8l11.691,6.179L1094,597.8l-11.69-6.179Z" transform="translate(-1064.078 -587.182)"/><g transform="translate(42.985 1.33)"><g transform="translate(0.001)"><path class="b" d="M1105.984,591.988h-19.189a2.083,2.083,0,0,1,0-4.167h19.189a2.083,2.083,0,0,1,0,4.167Z" transform="translate(-1084.711 -587.821)"/><g transform="translate(0 10.158)"><path class="b" d="M1105.984,596.864h-19.189a2.083,2.083,0,0,1,0-4.167h19.189a2.083,2.083,0,0,1,0,4.167Z" transform="translate(-1084.711 -592.697)"/></g></g><g transform="translate(0 18.529)"><path class="b" d="M1089.824,606.947a2.078,2.078,0,0,1-1.473-.61l-3.029-3.029a2.083,2.083,0,0,1,2.946-2.946l1.556,1.556,4.59-4.592a2.083,2.083,0,0,1,2.946,2.946l-6.062,6.065A2.074,2.074,0,0,1,1089.824,606.947Z" transform="translate(-1084.711 -596.715)"/></g></g></g></g></svg>