<svg xmlns="http://www.w3.org/2000/svg" width="38.001" height="38" viewBox="0 0 38.001 38"><defs><style>.a{fill:#c2c3c4;}</style></defs><path class="a" d="M4844.834,2194h-31.669a3.171,3.171,0,0,1-3.166-3.168v-31.667a3.169,3.169,0,0,1,3.166-3.166h31.669a3.169,3.169,0,0,1,3.166,3.166v31.667A3.171,3.171,0,0,1,4844.834,2194Zm-15.521-21.131a77.464,77.464,0,0,0-9.8.4,2.687,2.687,0,0,0-1.952,1.841c-.7,1.726-.812,9.032,0,11a2.676,2.676,0,0,0,1.952,1.864,77.208,77.208,0,0,0,9.691.407,55.456,55.456,0,0,0,8.6-.407,2.752,2.752,0,0,0,1.975-1.864c.792-1.989.678-9.291,0-11a2.768,2.768,0,0,0-1.975-1.841A54.565,54.565,0,0,0,4829.313,2172.869Zm2.031-8.355v5.947a1.758,1.758,0,0,0,.339,1.146,1.125,1.125,0,0,0,.921.4,2.005,2.005,0,0,0,.561-.068,1.313,1.313,0,0,0,.448-.157,1.455,1.455,0,0,0,.382-.271c.071-.059.143-.124.218-.193l.018-.017.049-.043c.046-.042.093-.085.143-.128v.741h1.437v-7.36h-1.5v5.767a4.64,4.64,0,0,1-.493.336.927.927,0,0,1-.473.137.527.527,0,0,1-.382-.137c-.106-.063-.156-.191-.156-.4v-5.7Zm-2.49-.134a2.639,2.639,0,0,0-1.1.2,1.821,1.821,0,0,0-.718.562,2.645,2.645,0,0,0-.4.875,5.654,5.654,0,0,0-.111,1.1v2.157a5.894,5.894,0,0,0,.111,1.123,2.322,2.322,0,0,0,.4.852,1.829,1.829,0,0,0,.718.561,2.624,2.624,0,0,0,1.1.2,2.581,2.581,0,0,0,1.077-.2,1.8,1.8,0,0,0,.718-.561,2.274,2.274,0,0,0,.4-.852,4.445,4.445,0,0,0,.111-1.123v-2.157a4.234,4.234,0,0,0-.111-1.1,2.61,2.61,0,0,0-.4-.875,1.8,1.8,0,0,0-.718-.562A2.6,2.6,0,0,0,4828.854,2164.379Zm-7.363-2.379h0l2,5.767v4.106h1.661v-4.106l2.021-5.767h-1.684l-1.123,3.77h-.022l-1.169-3.77Zm14.523,23.611a1.769,1.769,0,0,1-1.638-.741,2.556,2.556,0,0,1-.359-.875,5.368,5.368,0,0,1-.114-1.1v-2.177a5.554,5.554,0,0,1,.114-1.1,2.55,2.55,0,0,1,.359-.875,1.855,1.855,0,0,1,.649-.539,2.217,2.217,0,0,1,.988-.2,2.17,2.17,0,0,1,.989.2,1.526,1.526,0,0,1,.649.539,2.58,2.58,0,0,1,.382.875,5.554,5.554,0,0,1,.111,1.1v1.371h-2.872v1.077a1.838,1.838,0,0,0,.18.918.676.676,0,0,0,.561.271.641.641,0,0,0,.562-.271,1.6,1.6,0,0,0,.2-.918v-.157h1.368a7.007,7.007,0,0,1-.134,1.055,2.286,2.286,0,0,1-.382.829,1.69,1.69,0,0,1-.652.539A2.033,2.033,0,0,1,4836.015,2185.611Zm0-6.352a.685.685,0,0,0-.561.268,1.946,1.946,0,0,0-.18.92v.382h1.5v-.382a1.676,1.676,0,0,0-.2-.92A.659.659,0,0,0,4836.015,2179.26Zm-4.4,6.352a1.44,1.44,0,0,1-.81-.2,2.558,2.558,0,0,1-.649-.7h-.022v.764h-1.279v-9.854h1.37v3.143l.334-.336a2.816,2.816,0,0,1,.339-.225.747.747,0,0,1,.336-.157,1.043,1.043,0,0,1,.382-.045,1.179,1.179,0,0,1,1.031.516,2.564,2.564,0,0,1,.359,1.527v3.522a2.562,2.562,0,0,1-.359,1.527A1.178,1.178,0,0,1,4831.615,2185.611Zm-.63-6.352a.579.579,0,0,0-.379.111,1.868,1.868,0,0,0-.382.271v4.331a4.205,4.205,0,0,0,.382.293.743.743,0,0,0,.379.088.57.57,0,0,0,.271-.045.45.45,0,0,0,.2-.18.711.711,0,0,0,.134-.359,2.339,2.339,0,0,0,.046-.6v-2.718a2.3,2.3,0,0,0-.046-.6.724.724,0,0,0-.134-.359.478.478,0,0,0-.2-.18A.57.57,0,0,0,4830.985,2179.26Zm-6.126,6.352a.944.944,0,0,1-.829-.4,1.854,1.854,0,0,1-.316-1.125v-5.947h1.37v5.7a.558.558,0,0,0,.135.4.472.472,0,0,0,.358.111.815.815,0,0,0,.428-.134c.05-.034.1-.071.149-.108l.018-.013c.086-.062.174-.127.28-.192v-5.771h1.348v7.34h-1.279v-.718l-.382.359a1.74,1.74,0,0,1-.359.268l-.034.018-.034.018a1.541,1.541,0,0,1-.336.144A1.71,1.71,0,0,1,4824.859,2185.611Zm-2.692-.134h-1.5v-8.395H4819.2v-1.459h4.422v1.459h-1.458v8.394Zm6.688-14.723a.742.742,0,0,1-.627-.271,1.632,1.632,0,0,1-.2-.92v-2.716a1.58,1.58,0,0,1,.2-.92.766.766,0,0,1,.627-.293.754.754,0,0,1,.606.293,1.59,1.59,0,0,1,.226.92v2.716a1.662,1.662,0,0,1-.226.92A.74.74,0,0,1,4828.854,2170.754Z" transform="translate(-4809.999 -2156)"/></svg>